<svg xmlns="http://www.w3.org/2000/svg" xmlns:xlink="http://www.w3.org/1999/xlink" width="34" height="34" viewBox="0 0 34 34" fill="none">
<g filter="url(#filter_4_6)">
<path d="M11.7037 11.7037L8.81482 11.7037L7.08148 11.7037C7.01427 11.7037 6.9499 11.7037 6.88889 11.7037C6.88889 11.7647 6.88889 11.8291 6.88889 11.8963L6.88889 26.9185C6.88889 26.9857 6.88889 27.0501 6.88889 27.1111C6.9499 27.1111 7.01426 27.1111 7.08148 27.1111L22.1037 27.1111C22.1709 27.1111 22.2353 27.1111 22.2963 27.1111C22.2963 27.0501 22.2963 26.9857 22.2963 26.9185L22.2963 25.1852L22.2963 22.2963L22.2963 11.8963C22.2963 11.8291 22.2963 11.7647 22.2963 11.7037C22.2353 11.7037 22.1709 11.7037 22.1037 11.7037L11.7037 11.7037ZM26.9185 4C27.997 4 28.5363 4 28.9504 4.21185C29.1306 4.304 29.2888 4.42505 29.4319 4.56815C29.5749 4.71125 29.696 4.86945 29.7881 5.04963C30 5.4637 30 6.00296 30 7.08148L30 22.1037C30 23.1822 30 23.7215 29.7881 24.1356C29.696 24.3158 29.5749 24.4739 29.4319 24.617C29.2888 24.7601 29.1306 24.8812 28.9504 24.9733C28.5363 25.1852 27.997 25.1852 26.9185 25.1852L25.1852 25.1852L25.1852 26.9185C25.1852 27.997 25.1852 28.5363 24.9733 28.9504C24.8812 29.1306 24.7601 29.2888 24.617 29.4319C24.4739 29.5749 24.3158 29.696 24.1356 29.7881C23.7215 30 23.1822 30 22.1037 30L7.08148 30C6.00296 30 5.4637 30 5.04963 29.7881C4.86945 29.696 4.71125 29.5749 4.56815 29.4319C4.42505 29.2888 4.304 29.1306 4.21185 28.9504C4 28.5363 4 27.997 4 26.9185L4 11.8963C4 10.8178 4 10.2785 4.21185 9.86444C4.304 9.68427 4.42505 9.52606 4.56815 9.38296C4.71125 9.23986 4.86945 9.11881 5.04963 9.02667C5.4637 8.81482 6.00296 8.81482 7.08148 8.81482L8.81482 8.81482L8.81482 7.08148C8.81482 6.00296 8.81482 5.4637 9.02667 5.04963C9.11881 4.86945 9.23986 4.71125 9.38296 4.56815C9.52606 4.42505 9.68427 4.304 9.86444 4.21185C10.2785 4 10.8178 4 11.8963 4L26.9185 4ZM25.1852 22.2963L25.1852 11.8963C25.1852 10.8178 25.1852 10.2785 24.9733 9.86444C24.8812 9.68427 24.7601 9.52606 24.617 9.38296C24.4739 9.23986 24.3158 9.11881 24.1356 9.02667C23.7215 8.81482 23.1822 8.81482 22.1037 8.81482L11.7037 8.81482L11.7037 7.08148C11.7037 7.01425 11.7037 6.94989 11.7037 6.88889C11.7647 6.88889 11.8291 6.88889 11.8963 6.88889L26.9185 6.88889C26.9857 6.88889 27.0501 6.88889 27.1111 6.88889C27.1111 6.9499 27.1111 7.01426 27.1111 7.08148L27.1111 22.1037C27.1111 22.1709 27.1111 22.2353 27.1111 22.2963C27.0501 22.2963 26.9857 22.2963 26.9185 22.2963L25.1852 22.2963Z" fill-rule="evenodd"  fill="#333333" >
</path>
</g>
<defs>
<filter id="filter_4_6" x="0" y="0" width="34" height="34" filterUnits="userSpaceOnUse" color-interpolation-filters="sRGB">
<feFlood flood-opacity="0" result="feFloodId_4_6"/>
<feColorMatrix in="SourceAlpha" type="matrix" values="0 0 0 0 0 0 0 0 0 0 0 0 0 0 0 0 0 0 127 0" result="hardAlpha_4_6"/>
<feOffset dx="0" dy="0"/>
<feGaussianBlur stdDeviation="2"/>
<feComposite in2="hardAlpha_4_6" operator="out"/>
<feColorMatrix type="matrix" values="0 0 0 0 0 0 0 0 0 0 0 0 0 0 0 0 0 0 0.25 0"/>
<feBlend mode="normal" in2="feFloodId_4_6" result="dropShadow_1_4_6"/>
<feBlend mode="normal" in="SourceGraphic" in2="dropShadow_1_4_6" result="shape_4_6"/>
</filter>
</defs>
</svg>
